<svg width="32" height="32" viewBox="0 0 32 32" fill="none" xmlns="http://www.w3.org/2000/svg">
<path d="M16 32C24.8366 32 32 24.8366 32 16C32 7.16344 24.8366 0 16 0C7.16344 0 0 7.16344 0 16C0 24.8366 7.16344 32 16 32Z" fill="#FFDE3D"/>
<mask id="mask0_316_139" style="mask-type:alpha" maskUnits="userSpaceOnUse" x="6" y="4" width="22" height="23">
<path d="M6.74219 4.72955H27.2073V26.3418H6.74219V4.72955Z" fill="white"/>
</mask>
<g mask="url(#mask0_316_139)">
<path opacity="0.1" fill-rule="evenodd" clip-rule="evenodd" d="M21.2464 22.5794C20.6709 23.5099 20.0009 24.2795 19.2375 24.8882C18.4736 25.4969 17.6378 25.9172 16.7297 26.1494C15.8216 26.3815 14.8548 26.4035 13.8301 26.2148C12.8051 26.0259 11.7552 25.5971 10.6814 24.9278C9.59225 24.249 8.73653 23.4903 8.11337 22.6522C7.49007 21.8137 7.08112 20.9344 6.88561 20.0145C6.6901 19.0945 6.69432 18.1561 6.89925 17.1989C7.10362 16.2418 7.49387 15.298 8.06936 14.3675L14.0302 4.7294L17.4735 6.87525L11.5948 16.3803C11.2934 16.8677 11.0919 17.3666 10.9907 17.8763C10.8893 18.3863 10.8847 18.8798 10.9772 19.3566C11.0692 19.8337 11.2579 20.2788 11.5431 20.6916C11.8277 21.1044 12.1983 21.4529 12.6546 21.7372C13.1105 22.0215 13.5823 22.1979 14.0702 22.2665C14.5576 22.3353 15.0349 22.3051 15.502 22.1765C15.9685 22.048 16.4073 21.8251 16.8177 21.5076C17.2279 21.1906 17.5839 20.788 17.8853 20.3006L23.764 10.7955L27.2073 12.9414L21.2464 22.5794Z" fill="black"/>
</g>
<path fill-rule="evenodd" clip-rule="evenodd" d="M9.44331 10.4707H10.3262C10.4605 10.4707 10.6028 10.4659 10.7532 10.4563C10.9034 10.4467 11.0395 10.4177 11.1611 10.3696C11.2825 10.3214 11.3832 10.246 11.4633 10.1432C11.5432 10.0405 11.5832 9.89608 11.5832 9.7097C11.5832 9.53631 11.548 9.39834 11.4777 9.29552C11.4073 9.19291 11.3177 9.11415 11.209 9.05953C11.1001 9.00498 10.9754 8.968 10.8347 8.94874C10.694 8.92947 10.5565 8.9198 10.4221 8.9198H9.44331V10.4707ZM7.94629 7.64825H10.5757C10.9211 7.64825 11.2489 7.68199 11.5593 7.74938C11.8695 7.81685 12.1414 7.92927 12.375 8.08657C12.6084 8.24401 12.7939 8.45594 12.9316 8.72234C13.069 8.98889 13.1378 9.32128 13.1378 9.71937C13.1378 10.201 13.0131 10.6104 12.7636 10.9476C12.5141 11.2847 12.1495 11.4983 11.6696 11.5882L13.397 14.4684H11.6024L10.1822 11.7423H9.44331V14.4684H7.94629V7.64825Z" fill="black" fill-opacity="0.3"/>
<path fill-rule="evenodd" clip-rule="evenodd" d="M7.27539 17.8396H8.98353L10.6629 22.3093H10.6821L12.3902 17.8396H13.9928L11.1907 24.6597H9.9911L7.27539 17.8396Z" fill="black" fill-opacity="0.3"/>
<path fill-rule="evenodd" clip-rule="evenodd" d="M19.5107 21.2497C19.5107 21.5709 19.5601 21.8647 19.6594 22.1312C19.7585 22.3977 19.9008 22.6289 20.0864 22.8247C20.272 23.0206 20.4943 23.1731 20.7534 23.2822C21.0125 23.3916 21.3019 23.446 21.6218 23.446C21.9417 23.446 22.2312 23.3916 22.4903 23.2822C22.7494 23.1731 22.9716 23.0206 23.1572 22.8247C23.3427 22.6289 23.485 22.3977 23.5843 22.1312C23.6834 21.8647 23.733 21.5709 23.733 21.2497C23.733 20.9351 23.6834 20.6428 23.5843 20.3731C23.485 20.1034 23.3427 19.8707 23.1572 19.6747C22.9716 19.4789 22.7494 19.3265 22.4903 19.2172C22.2312 19.1081 21.9417 19.0534 21.6218 19.0534C21.3019 19.0534 21.0125 19.1081 20.7534 19.2172C20.4943 19.3265 20.272 19.4789 20.0864 19.6747C19.9008 19.8707 19.7585 20.1034 19.6594 20.3731C19.5601 20.6428 19.5107 20.9351 19.5107 21.2497ZM17.9561 21.2497C17.9561 20.7039 18.0472 20.2094 18.2295 19.7663C18.4119 19.3232 18.6662 18.946 18.9925 18.6344C19.3187 18.323 19.7057 18.0838 20.1536 17.9167C20.6013 17.7498 21.0908 17.6663 21.6218 17.6663C22.1528 17.6663 22.6422 17.7498 23.0901 17.9167C23.5378 18.0838 23.9249 18.323 24.2512 18.6344C24.5775 18.946 24.8318 19.3232 25.0141 19.7663C25.1964 20.2094 25.2876 20.7039 25.2876 21.2497C25.2876 21.7956 25.1964 22.2901 25.0141 22.7332C24.8318 23.1763 24.5775 23.5537 24.2512 23.8651C23.9249 24.1767 23.5378 24.4158 23.0901 24.5827C22.6422 24.7496 22.1528 24.8332 21.6218 24.8332C21.0908 24.8332 20.6013 24.7496 20.1536 24.5827C19.7057 24.4158 19.3187 24.1767 18.9925 23.8651C18.6662 23.5537 18.4119 23.1763 18.2295 22.7332C18.0472 22.2901 17.9561 21.7956 17.9561 21.2497Z" fill="black" fill-opacity="0.3"/>
<mask id="mask1_316_139" style="mask-type:alpha" maskUnits="userSpaceOnUse" x="6" y="4" width="22" height="23">
<path d="M6.74219 26.3418H27.2073V4.72955H6.74219V26.3418Z" fill="white"/>
</mask>
<g mask="url(#mask1_316_139)">
<path fill-rule="evenodd" clip-rule="evenodd" d="M18.4297 9.04263H24.5648V7.64828H18.4297V9.04263Z" fill="black" fill-opacity="0.3"/>
<path fill-rule="evenodd" clip-rule="evenodd" d="M18.4297 11.6938H24.5648V10.2994H18.4297V11.6938Z" fill="black" fill-opacity="0.3"/>
<path fill-rule="evenodd" clip-rule="evenodd" d="M18.4297 14.3449H24.5648V12.9506H18.4297V14.3449Z" fill="black" fill-opacity="0.3"/>
<path fill-rule="evenodd" clip-rule="evenodd" d="M21.5684 14.3449H24.5641V12.9506H22.4308L21.5684 14.3449Z" fill="black"/>
<path fill-rule="evenodd" clip-rule="evenodd" d="M23.09 17.9167C22.6421 17.7498 22.1528 17.6663 21.6218 17.6663C21.0907 17.6663 20.6013 17.7498 20.1536 17.9167C19.7057 18.0838 19.3187 18.323 18.9924 18.6344C18.9136 18.7096 18.8393 18.7889 18.7689 18.8718L18.2637 19.6886C18.2523 19.7145 18.2404 19.7399 18.2295 19.7663C18.0472 20.2094 17.9561 20.7039 17.9561 21.2497C17.9561 21.7956 18.0472 22.2901 18.2295 22.7332C18.4118 23.1763 18.6662 23.5537 18.9924 23.8651C19.223 24.0853 19.4847 24.2686 19.776 24.4165C20.1289 24.0791 20.4588 23.7024 20.7663 23.2873C20.762 23.2856 20.7576 23.2841 20.7533 23.2823C20.4943 23.1732 20.2719 23.0206 20.0864 22.8247C19.9008 22.6289 19.7585 22.3977 19.6593 22.1312C19.5601 21.8647 19.5106 21.5709 19.5106 21.2497C19.5106 20.9351 19.5601 20.6428 19.6593 20.3731C19.7585 20.1034 19.9008 19.8707 20.0864 19.6747C20.2719 19.4789 20.4943 19.3265 20.7533 19.2172C21.0125 19.1081 21.3018 19.0534 21.6218 19.0534C21.9416 19.0534 22.2311 19.1081 22.4903 19.2172C22.7173 19.3129 22.9159 19.4418 23.0865 19.604L23.876 18.3273C23.6389 18.161 23.3771 18.0239 23.09 17.9167Z" fill="black"/>
<path fill-rule="evenodd" clip-rule="evenodd" d="M9.87989 24.3828C10.0057 24.4765 10.1354 24.5689 10.2691 24.6597H11.1897L12.4473 21.5989C12.0849 21.342 11.7828 21.04 11.5425 20.6917C11.4881 20.6129 11.4384 20.5327 11.391 20.4516L10.6811 22.3093H10.6619L8.98255 17.8396H7.27441L9.87989 24.3828Z" fill="black"/>
<path fill-rule="evenodd" clip-rule="evenodd" d="M9.44408 14.4684V12.1455L8.06981 14.3676C8.049 14.4011 8.02904 14.4348 8.00879 14.4684H9.44408Z" fill="black"/>
<path fill-rule="evenodd" clip-rule="evenodd" d="M12.7777 14.4684L13.0924 13.9595L11.6703 11.5882C12.1501 11.4983 12.5147 11.2847 12.7642 10.9475C13.0137 10.6104 13.1385 10.201 13.1385 9.71939C13.1385 9.32123 13.0697 8.98891 12.9322 8.72236C12.7945 8.45596 12.6091 8.24403 12.3756 8.08659C12.2778 8.02068 12.1729 7.96316 12.0616 7.91306L11.3125 9.12419C11.3759 9.17112 11.4317 9.22758 11.4783 9.29554C11.5486 9.39829 11.5839 9.53633 11.5839 9.70972C11.5839 9.89603 11.5439 10.0406 11.464 10.1432C11.3839 10.246 11.2831 10.3214 11.1617 10.3696C11.0401 10.4178 10.904 10.4466 10.7539 10.4563C10.6595 10.4623 10.5695 10.4657 10.4814 10.468L9.69336 11.7423H10.1829L11.6031 14.4684H12.7777Z" fill="black"/>
<path fill-rule="evenodd" clip-rule="evenodd" d="M23.208 11.6938H24.5641V11.2946L23.7635 10.7956L23.208 11.6938Z" fill="black"/>
</g>
</svg>
